<?xml version="1.0" standalone="no"?>
<!DOCTYPE svg PUBLIC "-//W3C//DTD SVG 20010904//EN"
 "http://www.w3.org/TR/2001/REC-SVG-20010904/DTD/svg10.dtd">
<svg version="1.0" xmlns="http://www.w3.org/2000/svg"
 width="700.000000pt" height="700.000000pt" viewBox="0 0 700.000000 700.000000"
 preserveAspectRatio="xMidYMid meet">
<g transform="translate(0.000000,700.000000) scale(0.100000,-0.100000)"
fill="#000000" stroke="none">
<path d="M3298 6705 c-2 -2 -34 -6 -73 -9 -321 -26 -651 -106 -951 -229 -548
-224 -1054 -626 -1383 -1094 -33 -49 -64 -92 -69 -98 -46 -58 -218 -378 -274
-510 -83 -196 -177 -509 -203 -675 -4 -25 -9 -54 -11 -65 -2 -10 -6 -37 -9
-60 -3 -22 -8 -51 -10 -65 -19 -111 -26 -525 -12 -678 39 -431 155 -830 349
-1203 383 -739 1032 -1294 1819 -1559 104 -35 270 -81 339 -94 14 -2 32 -7 40
-10 8 -3 62 -12 120 -21 58 -8 116 -17 130 -19 163 -28 556 -29 778 -1 23 3
63 8 90 11 90 11 298 55 417 90 1045 303 1800 1092 2069 2159 27 107 61 282
70 355 58 464 52 776 -20 1090 l-15 66 -1494 -1 -1495 0 2 -620 3 -620 830 -2
c457 -1 842 -2 856 -2 26 -1 27 -2 18 -43 -28 -127 -94 -297 -160 -410 -242
-417 -661 -679 -1219 -762 -124 -19 -391 -25 -510 -13 -140 15 -162 19 -272
46 -611 152 -1097 583 -1321 1171 -45 117 -87 279 -102 390 -46 338 -9 664
109 973 164 428 505 798 931 1009 113 56 294 121 395 143 149 31 167 33 265
42 156 13 349 6 475 -16 30 -6 71 -13 90 -16 114 -19 322 -94 465 -168 81 -41
236 -140 288 -184 16 -12 32 -23 37 -23 6 0 830 818 909 904 l24 25 -24 21
c-134 114 -375 282 -519 364 -316 177 -752 333 -1045 372 -27 3 -58 8 -69 10
-10 2 -44 6 -75 9 -31 4 -72 9 -91 12 -39 5 -487 13 -492 8z"/>
</g>
</svg>
